<?xml version="1.0" encoding="UTF-8"?> <svg xmlns="http://www.w3.org/2000/svg" version="1.1" id="Layer_1" x="0" y="0" width="1006" height="280" xml:space="preserve"><style>.st4{fill:#1c2626}.st5{fill:#626c68}</style><linearGradient id="SVGID_1_" gradientUnits="userSpaceOnUse" x1="99.954" y1="142.242" x2="144.404" y2="254.538" gradientTransform="matrix(1 0 0 -1 0 278)"><stop offset="0" stop-color="#12877c"></stop><stop offset="1" stop-color="#02a284"></stop></linearGradient><path d="M137.1 6.7c-34.2 0-65.4 20.1-79.5 51.1l-.4 1c-4.8 11-7.3 22.7-7.3 34.8 0 15.3 4 30.3 11.7 43.4 7.6 13.2 18.8 24.2 32 31.8-5.3-7.9-8.5-17.4-8.8-27.6v-1.3-1.4c.2-13.5 3.1-26.7 8.7-39.1l.5-1c8.5-18.2 22.8-33.7 40.2-43.8 15-8.6 32-13.2 49.4-13.2 8.8 0 17.4 1.1 25.7 3.3-16.1-23.4-43-38-72.2-38z" fill="url(#SVGID_1_)"></path><linearGradient id="SVGID_2_" gradientUnits="userSpaceOnUse" x1="147.111" y1="193.089" x2="254.729" y2="122.904" gradientTransform="matrix(1 0 0 -1 0 278)"><stop offset=".008" stop-color="#02a284"></stop><stop offset="1" stop-color="#18c472"></stop></linearGradient><path d="M270.9 140.8c0-34.2-20.1-65.4-51.1-79.5l-1-.4c-11-4.8-22.7-7.3-34.8-7.3-15.3 0-30.3 4-43.4 11.7-13.2 7.6-24.2 18.8-31.8 32 7.9-5.3 17.4-8.5 27.6-8.8h2.7c13.6.2 26.8 3.1 39.2 8.7l1 .5c18.2 8.5 33.7 22.8 43.7 40.2 8.6 14.9 13.2 32 13.2 49.4 0 8.8-1.1 17.4-3.3 25.7 23.4-16 38-43 38-72.2z" fill="url(#SVGID_2_)"></path><path d="M64.6 235.2c16.1 23.5 43 38.1 72.2 38.1 34 0 65-19.8 79.2-50.5l.3-.6c5.1-11.3 7.7-23.3 7.7-35.7 0-15.3-4-30.3-11.7-43.4-7.6-13.2-18.8-24.2-32-31.8 5.3 7.9 8.5 17.4 8.8 27.6v2.6c-.2 13.2-2.9 26-8.2 38l-.5 1.2c-8.5 18.6-22.9 34.5-40.7 44.7-15 8.6-32.1 13.2-49.4 13.2-8.8 0-17.4-1.2-25.7-3.4z" fill="#18c472"></path><linearGradient id="SVGID_3_" gradientUnits="userSpaceOnUse" x1="104.611" y1="78.221" x2="13.37" y2="162.444" gradientTransform="matrix(1 0 0 -1 0 278)"><stop offset=".008" stop-color="#086c6a"></stop><stop offset="1" stop-color="#12877c"></stop></linearGradient><path d="M133.3 216.1c13.1-7.6 24.2-18.8 31.8-32-7.9 5.3-17.4 8.5-27.6 8.8h-2.7c-13.5-.2-26.7-3.1-39.1-8.7l-3.4-1.6v-.1c-17.1-8.6-31.7-22.3-41.3-39-8.6-14.9-13.2-32-13.2-49.4 0-8.8 1.1-17.4 3.3-25.7-23.5 16-38.1 43-38.1 72.1 0 34.2 20 65.4 51.1 79.5l1.4.6c10.9 4.7 22.4 7.1 34.3 7.1 15.3.1 30.3-4 43.5-11.6z" fill="url(#SVGID_3_)"></path><path class="st4" d="M688.7 105.4c-35.1 0-63.7 27.5-63.7 61.2s28.6 61.2 63.7 61.2 63.7-27.5 63.7-61.2c0-33.8-28.6-61.2-63.7-61.2zm0 91.1c-16.7 0-30.2-13.4-30.2-29.8s13.5-29.8 30.2-29.8 30.2 13.4 30.2 29.8-13.5 29.8-30.2 29.8zM402.8 227.9c-35.2 0-63.8-27.5-63.8-61.2V77c0-7 4.5-13.3 11.1-15.6l22.9-7.8v58.7l3.4-1.5c8.2-3.6 17.1-5.5 26.3-5.5 35.1 0 63.7 27.5 63.7 61.2.1 33.9-28.4 61.4-63.6 61.4zm0-91.3c-14.3 0-26.5 9.6-29.6 23.3-.5 2.1-.8 4.4-.8 6.7 0 16.6 13.6 30 30.4 30 16.8 0 30.4-13.5 30.4-30s-13.6-30-30.4-30zM485.3 227.8V105.6h34.1v21.8l4.3-5.9c.7-1 1.6-2 2.5-2.9 7.3-7.8 18.1-12.5 29.7-13.1v36h-7.8c-12.4 0-23 7.6-27.1 19.5-1.1 3.2-1.7 13.2-1.7 16.7v50.2l-34-.1zM574.6 227.8v-90.1c0-9.9 6.7-18.5 16.2-20.9l17.8-4.6v115.5h-34z"></path><circle class="st4" cx="591.5" cy="74" r="20.4"></circle><g><path class="st5" d="M879.8 227.8h-27.4V176h-47.7v51.8h-27.4V105.4h27.4v51.2h47.7v-51.2h27.4v122.4zM934.2 182.5v45.3H907V105.4h38.2c8.5 0 15.7.9 21.7 2.7 6 1.8 10.9 4.4 14.7 7.6 3.8 3.3 6.5 7.1 8.2 11.5 1.7 4.4 2.6 9.2 2.6 14.5 0 4-.5 7.7-1.5 11.3-1 3.5-2.5 6.8-4.5 9.8-2 3-4.5 5.7-7.4 8-2.9 2.4-6.3 4.3-10.1 5.8 1.8 1 3.5 2.1 5.1 3.5 1.6 1.4 3 3.1 4.2 5.1l25 42.6h-24.6c-4.6 0-7.8-1.8-9.8-5.4L949 186.9c-.9-1.6-1.9-2.7-3-3.4-1.2-.7-2.8-1-4.9-1h-6.9zm0-19.5h11c3.7 0 6.9-.5 9.5-1.5 2.6-1 4.7-2.3 6.4-4.1s2.9-3.8 3.6-6.1c.7-2.3 1.1-4.8 1.1-7.5 0-5.4-1.7-9.6-5-12.6-3.4-3-8.5-4.5-15.6-4.5h-11V163z"></path></g></svg> 