<?xml version="1.0" standalone="no"?>
<!DOCTYPE svg PUBLIC "-//W3C//DTD SVG 20010904//EN"
 "http://www.w3.org/TR/2001/REC-SVG-20010904/DTD/svg10.dtd">
<svg version="1.0" xmlns="http://www.w3.org/2000/svg"
 width="72.000000pt" height="54.000000pt" viewBox="0 0 72.000000 54.000000"
 preserveAspectRatio="xMidYMid meet">

<g transform="translate(0.000000,54.000000) scale(0.100000,-0.100000)"
fill="#ea2825" stroke="none">
<path d="M240 448 c-59 -30 -101 -92 -108 -156 -6 -67 12 -117 63 -167 126
-127 340 -35 340 146 0 151 -158 246 -295 177z m121 -87 c18 -15 21 -22 12
-31 -8 -9 -20 -9 -48 1 -31 11 -40 11 -63 -2 -67 -37 -43 -124 34 -124 32 0
39 4 44 25 8 34 55 36 54 3 -1 -30 32 -31 42 -1 5 16 1 27 -16 40 -24 19 -21
48 5 48 26 0 55 -38 55 -73 0 -46 -35 -78 -86 -78 -22 0 -60 -2 -86 -5 -38 -5
-53 -2 -77 16 -62 43 -63 133 -3 180 33 26 102 27 133 1z"/>
</g>
</svg>
